# xmcd CD database file
#
# Track frame offsets:
#	150
#	15867
#	27962
#	38207
#	52179
#	66728
#	82298
#	93104
#	105676
#	117665
#	128656
#	141777
#	158298
#	172281
#	185249
#	205818
#	219976
#	234197
#	246199
#
# Disc length: 3492 seconds
#
# Revision: 0
# Processed by: cddbd v1.5.1PL0 Copyright (c) Steve Scherf et al.
# Submitted via: CDex 1.50beta9
#
DISCID=0f0da213
DTITLE=James Moody - Just Moody - CD 3
DYEAR=1900
DGENRE=Jazz
TTITLE0=Riffin' and Raphin'
TTITLE1=St. Louis Blues
TTITLE2=In a Rush
TTITLE3=Embraceable you
TTITLE4=the Man i Love
TTITLE5=Les Feuilles Mortes
TTITLE6=Chanter Pour Toi
TTITLE7=Bedelia
TTITLE8=Aimer Comme je T'aime
TTITLE9=Si Lolie
TTITLE10=September Serenade
TTITLE11=Bootsie
TTITLE12=I Cover the Waterfront
TTITLE13=Deep Purple
TTITLE14=Lover, come back to me
TTITLE15=That's my Desire
TTITLE16=More than you know
TTITLE17=Moody's Mode
TTITLE18=This is always
EXTD=
EXTT0=
EXTT1=
EXTT2=
EXTT3=
EXTT4=
EXTT5=
EXTT6=
EXTT7=
EXTT8=
EXTT9=
EXTT10=
EXTT11=
EXTT12=
EXTT13=
EXTT14=
EXTT15=
EXTT16=
EXTT17=
EXTT18=
PLAYORDER=
